{
  "accessors": [
    {
      "bufferView": 2,
      "componentType": 5126,
      "count": 65532,
      "max": [
        111.15000915527344,
        166.87303161621094,
        34.414363861083984
      ],
      "min": [
        -111.15554809570313,
        -166.8917694091797,
        -16.082996368408203
      ],
      "type": "VEC3"
    },
    {
      "bufferView": 2,
      "byteOffset": 786384,
      "componentType": 5126,
      "count": 65532,
      "max": [
        0.9999995231628418,
        0.999971330165863,
        1.0
      ],
      "min": [
        -0.9999707341194153,
        -0.9999535083770752,
        -0.999993622303009
      ],
      "type": "VEC3"
    },
    {
      "bufferView": 1,
      "componentType": 5126,
      "count": 65532,
      "max": [
        0.9996700286865234,
        0.82225501537323
      ],
      "min": [
        0.00024399999529123306,
        0.00038300000596791506
      ],
      "type": "VEC2"
    },
    {
      "bufferView": 0,
      "componentType": 5125,
      "count": 263802,
      "type": "SCALAR"
    },
    {
      "bufferView": 2,
      "byteOffset": 1572768,
      "componentType": 5126,
      "count": 65532,
      "max": [
        101.14264678955078,
        148.42373657226563,
        40.58224868774414
      ],
      "min": [
        -111.1292953491211,
        -166.77305603027344,
        -15.868709564208984
      ],
      "type": "VEC3"
    },
    {
      "bufferView": 2,
      "byteOffset": 2359152,
      "componentType": 5126,
      "count": 65532,
      "max": [
        0.9999961256980896,
        0.9999995827674866,
        0.9999997615814209
      ],
      "min": [
        -0.9999927878379822,
        -0.9999901056289673,
        -0.9999114871025085
      ],
      "type": "VEC3"
    },
    {
      "bufferView": 1,
      "byteOffset": 524256,
      "componentType": 5126,
      "count": 65532,
      "max": [
        0.9997149705886841,
        0.8133000135421753
      ],
      "min": [
        0.00024399999529123306,
        0.058180999010801315
      ],
      "type": "VEC2"
    },
    {
      "bufferView": 0,
      "byteOffset": 1055208,
      "componentType": 5125,
      "count": 248454,
      "type": "SCALAR"
    },
    {
      "bufferView": 2,
      "byteOffset": 3145536,
      "componentType": 5126,
      "count": 65532,
      "max": [
        111.1292953491211,
        166.85870361328125,
        40.59466552734375
      ],
      "min": [
        -111.12930297851563,
        -166.79928588867188,
        -16.049537658691406
      ],
      "type": "VEC3"
    },
    {
      "bufferView": 2,
      "byteOffset": 3931920,
      "componentType": 5126,
      "count": 65532,
      "max": [
        0.9999972581863403,
        1.0,
        1.0
      ],
      "min": [
        -0.999991238117218,
        -0.9999726414680481,
        -0.9984126687049866
      ],
      "type": "VEC3"
    },
    {
      "bufferView": 1,
      "byteOffset": 1048512,
      "componentType": 5126,
      "count": 65532,
      "max": [
        0.9997259974479675,
        0.8095809817314148
      ],
      "min": [
        0.00024399999529123306,
        0.0013299999991431832
      ],
      "type": "VEC2"
    },
    {
      "bufferView": 0,
      "byteOffset": 2049024,
      "componentType": 5125,
      "count": 230658,
      "type": "SCALAR"
    },
    {
      "bufferView": 2,
      "byteOffset": 4718304,
      "componentType": 5126,
      "count": 65532,
      "max": [
        62.5692253112793,
        131.3820037841797,
        27.15813446044922
      ],
      "min": [
        -80.29248046875,
        -62.90129089355469,
        1.3410530090332031
      ],
      "type": "VEC3"
    },
    {
      "bufferView": 2,
      "byteOffset": 5504688,
      "componentType": 5126,
      "count": 65532,
      "max": [
        1.0,
        0.9999993443489075,
        1.0
      ],
      "min": [
        -0.9999997615814209,
        -0.9999998807907104,
        -0.9995301365852356
      ],
      "type": "VEC3"
    },
    {
      "bufferView": 1,
      "byteOffset": 1572768,
      "componentType": 5126,
      "count": 65532,
      "max": [
        0.999701976776123,
        0.6418480277061462
      ],
      "min": [
        0.00024399999529123306,
        0.04030299931764603
      ],
      "type": "VEC2"
    },
    {
      "bufferView": 0,
      "byteOffset": 2971656,
      "componentType": 5125,
      "count": 224451,
      "type": "SCALAR"
    },
    {
      "bufferView": 2,
      "byteOffset": 6291072,
      "componentType": 5126,
      "count": 65532,
      "max": [
        -11.385991096496582,
        132.1921844482422,
        46.90143585205078
      ],
      "min": [
        -80.16170501708984,
        -62.206268310546875,
        -0.10965699702501297
      ],
      "type": "VEC3"
    },
    {
      "bufferView": 2,
      "byteOffset": 7077456,
      "componentType": 5126,
      "count": 65532,
      "max": [
        0.9999979734420776,
        1.0,
        0.9999997615814209
      ],
      "min": [
        -0.9999986290931702,
        -0.9999996423721313,
        -0.9999884963035583
      ],
      "type": "VEC3"
    },
    {
      "bufferView": 1,
      "byteOffset": 2097024,
      "componentType": 5126,
      "count": 65532,
      "max": [
        0.9996129870414734,
        0.5776900053024292
      ],
      "min": [
        0.00024399999529123306,
        0.032728999853134155
      ],
      "type": "VEC2"
    },
    {
      "bufferView": 0,
      "byteOffset": 3869460,
      "componentType": 5125,
      "count": 226197,
      "type": "SCALAR"
    },
    {
      "bufferView": 2,
      "byteOffset": 7863840,
      "componentType": 5126,
      "count": 65532,
      "max": [
        111.13655090332031,
        166.85870361328125,
        56.44611740112305
      ],
      "min": [
        -100.6797103881836,
        -166.88134765625,
        -16.02813720703125
      ],
      "type": "VEC3"
    },
    {
      "bufferView": 2,
      "byteOffset": 8650224,
      "componentType": 5126,
      "count": 65532,
      "max": [
        1.0,
        0.9999781250953674,
        0.9999997615814209
      ],
      "min": [
        -0.9999647736549377,
        -0.9999998807907104,
        -0.9997798800468445
      ],
      "type": "VEC3"
    },
    {
      "bufferView": 1,
      "byteOffset": 2621280,
      "componentType": 5126,
      "count": 65532,
      "max": [
        0.9997509717941284,
        0.8216710090637207
      ],
      "min": [
        0.00024399999529123306,
        0.0012339999666437507
      ],
      "type": "VEC2"
    },
    {
      "bufferView": 0,
      "byteOffset": 4774248,
      "componentType": 5125,
      "count": 236334,
      "type": "SCALAR"
    },
    {
      "bufferView": 2,
      "byteOffset": 9436608,
      "componentType": 5126,
      "count": 65532,
      "max": [
        111.1292953491211,
        166.85870361328125,
        73.95310974121094
      ],
      "min": [
        -111.13456726074219,
        -166.78927612304688,
        -15.913581848144531
      ],
      "type": "VEC3"
    },
    {
      "bufferView": 2,
      "byteOffset": 10222992,
      "componentType": 5126,
      "count": 65532,
      "max": [
        0.9999989867210388,
        0.9999907612800598,
        1.0
      ],
      "min": [
        -0.9999852180480957,
        -0.9999972581863403,
        -0.9984616637229919
      ],
      "type": "VEC3"
    },
    {
      "bufferView": 1,
      "byteOffset": 3145536,
      "componentType": 5126,
      "count": 65532,
      "max": [
        0.9997490048408508,
        0.8105660080909729
      ],
      "min": [
        0.00024399999529123306,
        0.006111999973654747
      ],
      "type": "VEC2"
    },
    {
      "bufferView": 0,
      "byteOffset": 5719584,
      "componentType": 5125,
      "count": 241500,
      "type": "SCALAR"
    },
    {
      "bufferView": 2,
      "byteOffset": 11009376,
      "componentType": 5126,
      "count": 65532,
      "max": [
        106.95753479003906,
        132.002685546875,
        78.32502746582031
      ],
      "min": [
        -111.00587463378906,
        -149.36070251464844,
        -10.506454467773438
      ],
      "type": "VEC3"
    },
    {
      "bufferView": 2,
      "byteOffset": 11795760,
      "componentType": 5126,
      "count": 65532,
      "max": [
        0.9999997615814209,
        0.9999921321868896,
        1.0
      ],
      "min": [
        -0.9999894499778748,
        -0.9999972581863403,
        -0.9999262094497681
      ],
      "type": "VEC3"
    },
    {
      "bufferView": 1,
      "byteOffset": 3669792,
      "componentType": 5126,
      "count": 65532,
      "max": [
        0.9997029900550842,
        0.7212039828300476
      ],
      "min": [
        0.00024399999529123306,
        0.00317799998447299
      ],
      "type": "VEC2"
    },
    {
      "bufferView": 0,
      "byteOffset": 6685584,
      "componentType": 5125,
      "count": 208428,
      "type": "SCALAR"
    },
    {
      "bufferView": 2,
      "byteOffset": 12582144,
      "componentType": 5126,
      "count": 65532,
      "max": [
        111.1292953491211,
        166.85870361328125,
        32.024024963378906
      ],
      "min": [
        -111.14726257324219,
        -166.87167358398438,
        -15.989969253540039
      ],
      "type": "VEC3"
    },
    {
      "bufferView": 2,
      "byteOffset": 13368528,
      "componentType": 5126,
      "count": 65532,
      "max": [
        0.9999989867210388,
        0.9999986290931702,
        1.0
      ],
      "min": [
        -0.9999624490737915,
        -0.9999997615814209,
        -0.9997138977050781
      ],
      "type": "VEC3"
    },
    {
      "bufferView": 1,
      "byteOffset": 4194048,
      "componentType": 5126,
      "count": 65532,
      "max": [
        0.9997079968452454,
        0.7826899886131287
      ],
      "min": [
        0.00024399999529123306,
        0.00024500000290572643
      ],
      "type": "VEC2"
    },
    {
      "bufferView": 0,
      "byteOffset": 7519296,
      "componentType": 5125,
      "count": 298707,
      "type": "SCALAR"
    },
    {
      "bufferView": 2,
      "byteOffset": 14154912,
      "componentType": 5126,
      "count": 65534,
      "max": [
        108.44269561767578,
        132.18136596679688,
        54.550621032714844
      ],
      "min": [
        -111.11631774902344,
        -166.8746795654297,
        -15.165401458740234
      ],
      "type": "VEC3"
    },
    {
      "bufferView": 2,
      "byteOffset": 14941320,
      "componentType": 5126,
      "count": 65534,
      "max": [
        0.9999992251396179,
        0.9999991059303284,
        0.9999997615814209
      ],
      "min": [
        -0.999999463558197,
        -0.9999997615814209,
        -0.9997345209121704
      ],
      "type": "VEC3"
    },
    {
      "bufferView": 1,
      "byteOffset": 4718304,
      "componentType": 5126,
      "count": 65534,
      "max": [
        0.9996849894523621,
        0.7832329869270325
      ],
      "min": [
        0.00024399999529123306,
        0.001221999991685152
      ],
      "type": "VEC2"
    },
    {
      "bufferView": 0,
      "byteOffset": 8714124,
      "componentType": 5125,
      "count": 228480,
      "type": "SCALAR"
    },
    {
      "bufferView": 2,
      "byteOffset": 15727728,
      "componentType": 5126,
      "count": 65532,
      "max": [
        108.4898452758789,
        131.9827117919922,
        53.07596969604492
      ],
      "min": [
        -110.4337158203125,
        -166.57798767089844,
        -15.994869232177734
      ],
      "type": "VEC3"
    },
    {
      "bufferView": 2,
      "byteOffset": 16514112,
      "componentType": 5126,
      "count": 65532,
      "max": [
        0.9999992251396179,
        0.9999998807907104,
        0.9999998807907104
      ],
      "min": [
        -0.9999986290931702,
        -0.9999998807907104,
        -0.9998657703399658
      ],
      "type": "VEC3"
    },
    {
      "bufferView": 1,
      "byteOffset": 5242576,
      "componentType": 5126,
      "count": 65532,
      "max": [
        0.9997299909591675,
        0.7485520243644714
      ],
      "min": [
        0.00024399999529123306,
        0.009050000458955765
      ],
      "type": "VEC2"
    },
    {
      "bufferView": 0,
      "byteOffset": 9628044,
      "componentType": 5125,
      "count": 207264,
      "type": "SCALAR"
    },
    {
      "bufferView": 2,
      "byteOffset": 17300496,
      "componentType": 5126,
      "count": 65532,
      "max": [
        111.1292953491211,
        131.9168243408203,
        31.987106323242188
      ],
      "min": [
        -111.07254791259766,
        -166.8096466064453,
        -15.6317138671875
      ],
      "type": "VEC3"
    },
    {
      "bufferView": 2,
      "byteOffset": 18086880,
      "componentType": 5126,
      "count": 65532,
      "max": [
        0.9999992251396179,
        0.9999985694885254,
        1.0
      ],
      "min": [
        -0.9999987483024597,
        -0.9999970197677612,
        -0.9987004995346069
      ],
      "type": "VEC3"
    },
    {
      "bufferView": 1,
      "byteOffset": 5766832,
      "componentType": 5126,
      "count": 65532,
      "max": [
        0.9997479915618896,
        0.7713119983673096
      ],
      "min": [
        0.00024399999529123306,
        0.013918999582529068
      ],
      "type": "VEC2"
    },
    {
      "bufferView": 0,
      "byteOffset": 10457100,
      "componentType": 5125,
      "count": 238800,
      "type": "SCALAR"
    },
    {
      "bufferView": 2,
      "byteOffset": 18873264,
      "componentType": 5126,
      "count": 34269,
      "max": [
        -15.253856658935547,
        73.09896087646484,
        27.794837951660156
      ],
      "min": [
        -86.33728790283203,
        -56.891544342041016,
        -0.29554399847984314
      ],
      "type": "VEC3"
    },
    {
      "bufferView": 2,
      "byteOffset": 19284492,
      "componentType": 5126,
      "count": 34269,
      "max": [
        0.9999879002571106,
        0.9999424815177917,
        0.9999978542327881
      ],
      "min": [
        -0.9999841451644897,
        -0.9999902248382568,
        -0.9983411431312561
      ],
      "type": "VEC3"
    },
    {
      "bufferView": 1,
      "byteOffset": 6291088,
      "componentType": 5126,
      "count": 34269,
      "max": [
        0.9997029900550842,
        0.4066050052642822
      ],
      "min": [
        0.00024399999529123306,
        0.016851000487804413
      ],
      "type": "VEC2"
    },
    {
      "bufferView": 0,
      "byteOffset": 11412300,
      "componentType": 5125,
      "count": 84936,
      "type": "SCALAR"
    }
  ],
  "asset": {
    "extras": {
      "author": "Metazeon (https://sketchfab.com/Metazeon)",
      "license": "CC-BY-4.0 (http://creativecommons.org/licenses/by/4.0/)",
      "source": "https://sketchfab.com/3d-models/factory-plant-32f2a19da3044b63b8b9b0da92e16184",
      "title": "Factory, Plant"
    },
    "generator": "Sketchfab-16.59.0",
    "version": "2.0"
  },
  "bufferViews": [
    {
      "buffer": 0,
      "byteLength": 11752044,
      "name": "floatBufferViews",
      "target": 34963
    },
    {
      "buffer": 0,
      "byteLength": 6565240,
      "byteOffset": 11752044,
      "byteStride": 8,
      "name": "floatBufferViews",
      "target": 34962
    },
    {
      "buffer": 0,
      "byteLength": 19695720,
      "byteOffset": 18317284,
      "byteStride": 12,
      "name": "floatBufferViews",
      "target": 34962
    }
  ],
  "buffers": [
    {
      "byteLength": 38013004,
      "uri": "scene.bin"
    }
  ],
  "extensionsUsed": [
    "KHR_materials_specular"
  ],
  "images": [
    {
      "uri": "textures/20250116_005_RC_LOD0_u0_v0_baseColor.png"
    }
  ],
  "materials": [
    {
      "doubleSided": true,
      "extensions": {
        "KHR_materials_specular": {
          "specularColorFactor": [
            1.0,
            1.0,
            1.0
          ],
          "specularFactor": 0.1
        }
      },
      "name": "20250116_005_RC_LOD0_u0_v0",
      "pbrMetallicRoughness": {
        "baseColorTexture": {
          "index": 0
        },
        "metallicFactor": 0.1,
        "roughnessFactor": 0.9
      }
    }
  ],
  "meshes": [
    {
      "name": "Object_0",
      "primitives": [
        {
          "attributes": {
            "NORMAL": 1,
            "POSITION": 0,
            "TEXCOORD_0": 2
          },
          "indices": 3,
          "material": 0,
          "mode": 4
        }
      ]
    },
    {
      "name": "Object_1",
      "primitives": [
        {
          "attributes": {
            "NORMAL": 5,
            "POSITION": 4,
            "TEXCOORD_0": 6
          },
          "indices": 7,
          "material": 0,
          "mode": 4
        }
      ]
    },
    {
      "name": "Object_2",
      "primitives": [
        {
          "attributes": {
            "NORMAL": 9,
            "POSITION": 8,
            "TEXCOORD_0": 10
          },
          "indices": 11,
          "material": 0,
          "mode": 4
        }
      ]
    },
    {
      "name": "Object_3",
      "primitives": [
        {
          "attributes": {
            "NORMAL": 13,
            "POSITION": 12,
            "TEXCOORD_0": 14
          },
          "indices": 15,
          "material": 0,
          "mode": 4
        }
      ]
    },
    {
      "name": "Object_4",
      "primitives": [
        {
          "attributes": {
            "NORMAL": 17,
            "POSITION": 16,
            "TEXCOORD_0": 18
          },
          "indices": 19,
          "material": 0,
          "mode": 4
        }
      ]
    },
    {
      "name": "Object_5",
      "primitives": [
        {
          "attributes": {
            "NORMAL": 21,
            "POSITION": 20,
            "TEXCOORD_0": 22
          },
          "indices": 23,
          "material": 0,
          "mode": 4
        }
      ]
    },
    {
      "name": "Object_6",
      "primitives": [
        {
          "attributes": {
            "NORMAL": 25,
            "POSITION": 24,
            "TEXCOORD_0": 26
          },
          "indices": 27,
          "material": 0,
          "mode": 4
        }
      ]
    },
    {
      "name": "Object_7",
      "primitives": [
        {
          "attributes": {
            "NORMAL": 29,
            "POSITION": 28,
            "TEXCOORD_0": 30
          },
          "indices": 31,
          "material": 0,
          "mode": 4
        }
      ]
    },
    {
      "name": "Object_8",
      "primitives": [
        {
          "attributes": {
            "NORMAL": 33,
            "POSITION": 32,
            "TEXCOORD_0": 34
          },
          "indices": 35,
          "material": 0,
          "mode": 4
        }
      ]
    },
    {
      "name": "Object_9",
      "primitives": [
        {
          "attributes": {
            "NORMAL": 37,
            "POSITION": 36,
            "TEXCOORD_0": 38
          },
          "indices": 39,
          "material": 0,
          "mode": 4
        }
      ]
    },
    {
      "name": "Object_10",
      "primitives": [
        {
          "attributes": {
            "NORMAL": 41,
            "POSITION": 40,
            "TEXCOORD_0": 42
          },
          "indices": 43,
          "material": 0,
          "mode": 4
        }
      ]
    },
    {
      "name": "Object_11",
      "primitives": [
        {
          "attributes": {
            "NORMAL": 45,
            "POSITION": 44,
            "TEXCOORD_0": 46
          },
          "indices": 47,
          "material": 0,
          "mode": 4
        }
      ]
    },
    {
      "name": "Object_12",
      "primitives": [
        {
          "attributes": {
            "NORMAL": 49,
            "POSITION": 48,
            "TEXCOORD_0": 50
          },
          "indices": 51,
          "material": 0,
          "mode": 4
        }
      ]
    }
  ],
  "nodes": [
    {
      "children": [
        1
      ],
      "matrix": [
        1.0,
        -3.5707495248565405e-32,
        1.6081226229577292e-16,
        0.0,
        1.6081226229577292e-16,
        2.220446049250313e-16,
        -1.0,
        0.0,
        0.0,
        1.0,
        2.220446049250313e-16,
        0.0,
        0.0,
        0.0,
        0.0,
        1.0
      ],
      "name": "Sketchfab_model"
    },
    {
      "children": [
        2,
        3,
        4,
        5,
        6,
        7,
        8,
        9,
        10,
        11,
        12,
        13,
        14
      ],
      "name": "20250116_005_RC_LOD0.obj.cleaner.materialmerger.gles"
    },
    {
      "mesh": 0,
      "name": "Object_2"
    },
    {
      "mesh": 1,
      "name": "Object_3"
    },
    {
      "mesh": 2,
      "name": "Object_4"
    },
    {
      "mesh": 3,
      "name": "Object_5"
    },
    {
      "mesh": 4,
      "name": "Object_6"
    },
    {
      "mesh": 5,
      "name": "Object_7"
    },
    {
      "mesh": 6,
      "name": "Object_8"
    },
    {
      "mesh": 7,
      "name": "Object_9"
    },
    {
      "mesh": 8,
      "name": "Object_10"
    },
    {
      "mesh": 9,
      "name": "Object_11"
    },
    {
      "mesh": 10,
      "name": "Object_12"
    },
    {
      "mesh": 11,
      "name": "Object_13"
    },
    {
      "mesh": 12,
      "name": "Object_14"
    }
  ],
  "samplers": [
    {
      "magFilter": 9729,
      "minFilter": 9987,
      "wrapS": 10497,
      "wrapT": 10497
    }
  ],
  "scene": 0,
  "scenes": [
    {
      "name": "Sketchfab_Scene",
      "nodes": [
        0
      ]
    }
  ],
  "textures": [
    {
      "sampler": 0,
      "source": 0
    }
  ]
}
